<svg xmlns="http://www.w3.org/2000/svg" xmlns:xlink="http://www.w3.org/1999/xlink" viewBox="0 0 239.2 118.6"><defs><style>.a{fill:url(#a);}.b{fill:none;stroke-miterlimit:10;stroke:url(#b);stroke-width:1px;stroke:#c9e9f5;}.c{fill:#231f20;}.d{fill:#9da4ae;}</style><linearGradient id="a" x1="36.51" y1="40.85" x2="245.9" y2="40.85" gradientUnits="userSpaceOnUse"><stop offset="0" stop-color="#c9e9f5"/><stop offset="1" stop-color="#fff"/></linearGradient><linearGradient id="b" x1="34.28" y1="40.63" x2="247.89" y2="40.63" xlink:href="#a"/></defs><path class="a" d="M50.2,72.2A157.4,157.4,0,0,0,73.4,56.3a11.5,11.5,0,0,1,6.2-1.8l159.1,4.3c3,.3,6-1.6,6.1-5.8l1.1-30.9a7.6,7.6,0,0,0-7.8-8.3L45.9,7.6c-4.9-.3-8.5,2.7-8.3,7.7L36.5,45.1c-.2,3.9,2.5,6.4,5.9,6.2l10.1.3c2.3.2,4,3.2,3.3,5.9s-3.3,7.7-7.2,13.1l-2.6,3c-.2.3.1.7.4.5Z" transform="translate(-8.7 -5.2)"/><path class="b" d="M54.4,56.9c-1.1,5.1-4.6,10.5-9.6,16a1.8,1.8,0,0,0,2.5,2.4A141.3,141.3,0,0,0,73.8,57.9,11.4,11.4,0,0,1,80.5,56l159.2,4.6a6.4,6.4,0,0,0,6.5-6.2l1.2-33.1a8.7,8.7,0,0,0-8.3-8.9L44.8,5.7A8.5,8.5,0,0,0,35.9,14L34.8,45.9A6.5,6.5,0,0,0,41,52.6l10.5.3C53.5,52.9,54.9,54.5,54.4,56.9Z" transform="translate(-8.7 -5.2)"/><path class="c" d="M50.3,29.7a.6.6,0,0,0-.5.2,2.9,2.9,0,0,0-.2,1.2,12.2,12.2,0,0,0,.1,2.1c.1.1.1.3.2.3s.2.2.4.3a1.2,1.2,0,0,1,.6,1c0,.5-.3.8-.9,1l-3.1.2c-2.6-.1-3.9-.7-3.9-1.7s0-.3.1-.4l.6-.4a1.3,1.3,0,0,0,.6-.7,2.8,2.8,0,0,0,.3-1.5q.1-.7.3-5.4a11,11,0,0,0-.1-2.1,1.6,1.6,0,0,0-.6-.8l-.7-.4a.7.7,0,0,1-.1-.5.9.9,0,0,1,.3-.7,1.9,1.9,0,0,1,.9-.4h1.3l1.7.2h4.9a6,6,0,0,1,3.8,1.2,3.3,3.3,0,0,1,1.2,2.8,3.5,3.5,0,0,1-.5,1.8,4.1,4.1,0,0,1-1.4,1.2c-.2.1-.3.2-.3.4s.1.4.5.5a3,3,0,0,1,1.6,1.3,6.8,6.8,0,0,1,.7,2.6,2,2,0,0,0,.2.9,1.9,1.9,0,0,0,.8.4l.4.3a.7.7,0,0,1,.1.5.9.9,0,0,1-.3.6,1.2,1.2,0,0,1-.7.5,5.5,5.5,0,0,1-2.4.4,4.2,4.2,0,0,1-3-1.2,3.1,3.1,0,0,1-.6-1.3,13.6,13.6,0,0,1-.6-2.4,6.4,6.4,0,0,0-.6-1.4A1.4,1.4,0,0,0,50.3,29.7Zm-.4-5.5-.2,2.5h0a.7.7,0,0,0,.1.5h.4a1.6,1.6,0,0,0,1.4-.4,2.1,2.1,0,0,0,.5-1.5c0-1.4-.4-2.1-1.4-2.2a.8.8,0,0,0-.6.2A1.2,1.2,0,0,0,49.9,24.2Z" transform="translate(-8.7 -5.2)"/><path class="c" d="M69.9,31.7l-5.1-.2a.3.3,0,0,0-.3.3,1.9,1.9,0,0,0,.7,1.4,2.5,2.5,0,0,0,1.6.6H68a3.1,3.1,0,0,0,1-.5l.6-.2a.5.5,0,0,1,.5.4.9.9,0,0,1,.3.7,1.9,1.9,0,0,1-1,1.4,7,7,0,0,1-4,1.2,5.7,5.7,0,0,1-3.7-1.5,4.8,4.8,0,0,1-1.2-1.6,5.7,5.7,0,0,1-.6-2.5,6.6,6.6,0,0,1,1.2-3.3,5.3,5.3,0,0,1,2.5-1.7,6.4,6.4,0,0,1,2.4-.4A4.9,4.9,0,0,1,69.4,27a3,3,0,0,1,1.1,1.4,3.1,3.1,0,0,1,.5,1.8,2,2,0,0,1-.3,1.1A.9.9,0,0,1,69.9,31.7Zm-4.7-2.2h1.1c.4,0,.7-.2.7-.6a1.7,1.7,0,0,0-.3-1,1.3,1.3,0,0,0-.9-.4,1.1,1.1,0,0,0-.9.5.9.9,0,0,0-.4.8.6.6,0,0,0,.2.5Z" transform="translate(-8.7 -5.2)"/><path class="c" d="M78,26.1a4.9,4.9,0,0,1,3.1,1.1,3.1,3.1,0,0,1,.9,1.1,3.5,3.5,0,0,1,.2,1.8v1.6a8.8,8.8,0,0,0,.2,2.2l.2.3H83a.5.5,0,0,1,.3.5,3,3,0,0,1-.4,1.1l-1.1.9a3.9,3.9,0,0,1-1.8.4,2.2,2.2,0,0,1-1.7-.9c-.1-.2-.3-.2-.4-.3a.9.9,0,0,0-.6.3,4.1,4.1,0,0,1-2.5.7,3.8,3.8,0,0,1-2.2-.7,2.4,2.4,0,0,1-.9-1.1,2.8,2.8,0,0,1-.3-1.3,3,3,0,0,1,1-1.9,6.1,6.1,0,0,1,4.3-1.3c.4.1.6,0,.7-.1s.2-.2.2-.5a2.8,2.8,0,0,0-.2-1.7.7.7,0,0,0-.7-.5.7.7,0,0,0-.6.2l-.6.6c-.7.9-1.4,1.4-2.1,1.3a1,1,0,0,1-1.1-1.1,1.7,1.7,0,0,1,.4-1.1,3.6,3.6,0,0,1,1.2-.8A7.3,7.3,0,0,1,78,26.1Zm-1,6.2a1.1,1.1,0,0,0-.8.3,1.3,1.3,0,0,0-.4,1,1.9,1.9,0,0,0,.2.8.9.9,0,0,0,.7.3c.5.1.8-.4.9-1.4a1.7,1.7,0,0,0-.1-.8A.6.6,0,0,0,77,32.3Z" transform="translate(-8.7 -5.2)"/><path class="c" d="M97,23.7l-.4,9.8v1a1,1,0,0,0,.4.5l.5.5a.7.7,0,0,1,.1.5c0,.6-.6,1-1.7,1.2a8.7,8.7,0,0,1-3.2.3h-.4c-.1,0-.1-.2-.1-.5a.5.5,0,0,0-.4-.5l-.6.3a4.1,4.1,0,0,1-2.4.8,4.7,4.7,0,0,1-3-1.4,6.6,6.6,0,0,1-1.2-1.7,4.8,4.8,0,0,1-.5-2.6,5.2,5.2,0,0,1,.9-2.9A5.1,5.1,0,0,1,87.2,27a4.4,4.4,0,0,1,2.2-.5,4.3,4.3,0,0,1,2.2.6h.3q.3,0,.3-.9a1.3,1.3,0,0,0-.1-.6l-.7-.4a.8.8,0,0,1-.7-.8c.1-.5.6-.9,1.6-1.1a17.1,17.1,0,0,1,3.8-.7A.9.9,0,0,1,97,23.7Zm-6.1,5.2c-.4-.1-.8.2-1.1.7a4.6,4.6,0,0,0-.6,2.5,3.8,3.8,0,0,0,.4,2.3,1.4,1.4,0,0,0,1,.5,1.2,1.2,0,0,0,1.1-.7,11.9,11.9,0,0,0,.4-2.7,5.4,5.4,0,0,0-.3-2.2A1,1,0,0,0,90.9,28.9Z" transform="translate(-8.7 -5.2)"/><path class="c" d="M108.6,32.5l-1.5,3.8c-.4,1-.8,1.7-1.1,2.3a10.1,10.1,0,0,1-1.3,1.6,5.2,5.2,0,0,1-3.4,1.2,4.3,4.3,0,0,1-2.6-1,2,2,0,0,1-.7-1.6,1.8,1.8,0,0,1,.6-1.4,1.7,1.7,0,0,1,1.3-.5,1.9,1.9,0,0,1,1.3.5c.1.2.2.3.2.5a1.3,1.3,0,0,1,.2.8.6.6,0,0,0,.6.5.5.5,0,0,0,.5-.3.9.9,0,0,0,.3-.7,6.8,6.8,0,0,0-.5-1.7l-2.4-5.6-.6-1.1c-.1-.2-.4-.3-.9-.6l-.3-.3c-.1-.2-.2-.3-.2-.5s.7-1.1,2-1.2A12.8,12.8,0,0,1,103,27l1.8.3c.5.3.8.6.8,1.1a1.3,1.3,0,0,1-.3.7,1.4,1.4,0,0,0-.2.6,1.1,1.1,0,0,0,.1.5,4.9,4.9,0,0,0,.4,1c.3.5.5.7.7.7a1,1,0,0,0,.7-.6,2.2,2.2,0,0,0,.4-1.3,1.9,1.9,0,0,0-.2-.8,1.2,1.2,0,0,1-.4-.8c0-.4.3-.7.8-.9a3.6,3.6,0,0,1,1.9-.2c1.5,0,2.3.4,2.3,1.1s-.1.5-.3.7a2.6,2.6,0,0,1-.9.4,1.6,1.6,0,0,0-.8.6A26,26,0,0,0,108.6,32.5Z" transform="translate(-8.7 -5.2)"/><path class="c" d="M124,30.5v3.6a1.3,1.3,0,0,0,.2,1.1.9.9,0,0,0,.8.4l1.2-.3h.3c.2,0,.3.1.4.3a1,1,0,0,1,.2.7,1.6,1.6,0,0,1-.7,1.3,5.5,5.5,0,0,1-3.8,1.1,4.1,4.1,0,0,1-2.7-1,3.5,3.5,0,0,1-1-2.6l.2-5v-.3h-1.4c-.3,0-.4,0-.4-.1s-.1-.2-.1-.5v-.5c0-.2.1-.3.3-.4l5-3h1.7c0,.1.1.3,0,.5v1.5c0,.2,0,.3.1.4h2.9c.1.1.1.3.1.7v.6a1.2,1.2,0,0,1-.2.7l-.5.2h-2.4C124,30.2,124,30.3,124,30.5Z" transform="translate(-8.7 -5.2)"/><path class="c" d="M134.4,28a6.3,6.3,0,0,1,3.4,1.2,5.2,5.2,0,0,1,1.7,1.9,4.8,4.8,0,0,1,.5,2.6,4.7,4.7,0,0,1-2.2,3.9A7.4,7.4,0,0,1,133,39a6.3,6.3,0,0,1-4.1-1.6,4.9,4.9,0,0,1-1.4-3.7,5.4,5.4,0,0,1,2.1-4.1A7.1,7.1,0,0,1,134.4,28Zm-.9,2.5a1,1,0,0,0-.8.3,1.4,1.4,0,0,0-.3.9,6.2,6.2,0,0,0,.2,1.8,11.7,11.7,0,0,0,.5,2c.2.6.5.9,1,.9s1-.4,1-1.2a7.1,7.1,0,0,0-.2-2,7.4,7.4,0,0,0-.5-1.9C134.2,30.8,133.9,30.5,133.5,30.5Z" transform="translate(-8.7 -5.2)"/><path class="c" d="M152.6,28.7a5.5,5.5,0,0,1,3.2,1,4.7,4.7,0,0,1,.9,1.2,5,5,0,0,1,.2,1.8v1.6a5.9,5.9,0,0,0,.2,2.2l.2.3h.4c.3.1.4.2.4.5a1.6,1.6,0,0,1-.5,1,2.4,2.4,0,0,1-1.1.9,3.4,3.4,0,0,1-1.7.5,2.6,2.6,0,0,1-1.7-.9l-.4-.3a.9.9,0,0,0-.6.3,4.5,4.5,0,0,1-2.5.7,4.4,4.4,0,0,1-2.2-.7,2.4,2.4,0,0,1-.9-1.1,3.1,3.1,0,0,1-.3-1.3,2.8,2.8,0,0,1,1-2,6.4,6.4,0,0,1,4.2-1.2h.8a.6.6,0,0,0,.2-.5,3.7,3.7,0,0,0-.2-1.7.6.6,0,0,0-.7-.5h-.6l-.7.7a2.5,2.5,0,0,1-2,1.3,1.4,1.4,0,0,1-.9-.3,1.2,1.2,0,0,1-.3-.9,1.9,1.9,0,0,1,.5-1l1.1-.8A7.7,7.7,0,0,1,152.6,28.7Zm-.9,6.2a1.1,1.1,0,0,0-.8.3,1.2,1.2,0,0,0-.4.9c0,.4,0,.7.2.9a.9.9,0,0,0,.6.3c.6,0,.9-.4.9-1.4a2,2,0,0,0,0-.8Z" transform="translate(-8.7 -5.2)"/><path class="c" d="M171.8,33.3v3.8c0,.3,0,.5.1.6s.3.4.6.8.2.3.2.5a1.3,1.3,0,0,1-.9,1,12,12,0,0,1-3.1.2,6.2,6.2,0,0,1-2-.4.9.9,0,0,1-.7-.9.4.4,0,0,0,.1-.3c.1,0,.2-.2.5-.5s.4-1.2.5-2.9a5.7,5.7,0,0,0-.3-2.2c-.1-.4-.5-.6-1-.7a1.1,1.1,0,0,0-1,.5,3,3,0,0,0-.3,1.6v2.2c0,.4,0,.7.1.8a2.9,2.9,0,0,0,.5,1c0,.1.1.2.1.4s-.3.7-.9.9a7.6,7.6,0,0,1-2.8.2c-2,0-3-.5-2.9-1.3s0-.3.1-.4.2-.2.4-.4.3-.3.4-.4.1-.6.2-1.3.1-1.7.1-2.6a3.2,3.2,0,0,0,0-1l-.7-.5a.9.9,0,0,1-.4-.8.9.9,0,0,1,.4-.7l1.6-.6,2-.5a2.3,2.3,0,0,1,1.3-.2c.2,0,.4,0,.5.2a.7.7,0,0,1,.2.6v.4c0,.3.1.5.4.5a.7.7,0,0,0,.6-.4,3.2,3.2,0,0,1,2.7-1.2,3.6,3.6,0,0,1,2.3.8,2.7,2.7,0,0,1,.9,1.2A9.5,9.5,0,0,1,171.8,33.3Z" transform="translate(-8.7 -5.2)"/><path class="c" d="M179.8,29.6a5.6,5.6,0,0,1,3.2,1.1,2.7,2.7,0,0,1,.9,1.2,4.4,4.4,0,0,1,.2,1.8v1.6a5,5,0,0,0,.2,2.1c.1.2.1.3.2.3l.5.2c.2,0,.3.2.3.4a1.8,1.8,0,0,1-.5,1.1,5.3,5.3,0,0,1-1.1.9,3.3,3.3,0,0,1-1.7.4,2.1,2.1,0,0,1-1.7-.8l-.4-.3a.7.7,0,0,0-.6.2,4.3,4.3,0,0,1-2.5.7,3.1,3.1,0,0,1-2.2-.7,2.2,2.2,0,0,1-.9-1,3.5,3.5,0,0,1-.3-1.4,2.6,2.6,0,0,1,1-1.9,5.6,5.6,0,0,1,4.2-1.2h.8a.8.8,0,0,0,.2-.6,3.9,3.9,0,0,0-.2-1.7.8.8,0,0,0-.7-.5.7.7,0,0,0-.6.2,2.2,2.2,0,0,0-.7.7,2.7,2.7,0,0,1-2,1.3,1.5,1.5,0,0,1-.8-.4.9.9,0,0,1-.4-.8,1.9,1.9,0,0,1,.5-1,3.1,3.1,0,0,1,1.1-.9A10.1,10.1,0,0,1,179.8,29.6Zm-.9,6.2a.9.9,0,0,0-.8.4,1,1,0,0,0-.4.9,1.9,1.9,0,0,0,.2.8l.7.4q.8,0,.9-1.5c0-.4-.1-.6-.1-.8Z" transform="translate(-8.7 -5.2)"/><path class="c" d="M192.2,32.2v6.1a.6.6,0,0,0,.5.6l.5.4c.1.1.1.2.1.4a1.4,1.4,0,0,1-.2.7,1.5,1.5,0,0,1-.7.3,8.7,8.7,0,0,1-2.6.2,12.3,12.3,0,0,1-2.9-.4,1.8,1.8,0,0,1-.7-.5,1.4,1.4,0,0,1-.2-.6.5.5,0,0,1,.2-.4l.6-.3c.3-.1.4-.5.5-1a19.6,19.6,0,0,0,.3-4,16.8,16.8,0,0,0,0-3.3,1.9,1.9,0,0,0-.7-1.2c-.3-.2-.5-.3-.6-.5a.8.8,0,0,1-.2-.6,1.2,1.2,0,0,1,.6-.9l1.6-.6,1.9-.4h1.8c.5,0,.8.3.8,1s-.1.8-.2,1.6S192.3,31.2,192.2,32.2Z" transform="translate(-8.7 -5.2)"/><path class="c" d="M203.9,35.7l-1.5,3.9a16.1,16.1,0,0,1-1.2,2.3,9.8,9.8,0,0,1-1.2,1.5,4.8,4.8,0,0,1-3.4,1.3,4.1,4.1,0,0,1-2.6-1,2,2,0,0,1-.7-1.6,1.8,1.8,0,0,1,.6-1.4,1.5,1.5,0,0,1,1.3-.5,1.7,1.7,0,0,1,1.2.5c.2.2.3.3.3.5s.1.4.2.8.3.5.5.5a.7.7,0,0,0,.6-.3c.2-.2.2-.4.3-.7a5.8,5.8,0,0,0-.5-1.7l-2.4-5.6-.6-1.1c-.1-.2-.4-.3-.9-.6l-.4-.3a1.1,1.1,0,0,1-.1-.5c0-.7.7-1.1,1.9-1.3h2.9l1.8.3c.6.3.9.6.9,1.1a.9.9,0,0,1-.3.6,1.5,1.5,0,0,0-.3.6c0,.2.1.4.1.6l.5.9c.2.6.5.8.7.8s.4-.2.7-.6a3.3,3.3,0,0,0,.4-1.3,1.1,1.1,0,0,0-.3-.8,1.6,1.6,0,0,1-.3-.8.9.9,0,0,1,.7-.9,4.1,4.1,0,0,1,2-.2c1.5,0,2.3.4,2.2,1.1a1.4,1.4,0,0,1-.2.7l-.9.4a1.6,1.6,0,0,0-.8.6A15.4,15.4,0,0,0,203.9,35.7Z" transform="translate(-8.7 -5.2)"/><path class="c" d="M213,31h4.1l.4.2a.7.7,0,0,1,.1.5,1.6,1.6,0,0,1-.4,1l-3,5a3.1,3.1,0,0,0-.4.9c0,.3.3.5.8.5l.9-.2a1.8,1.8,0,0,0,.6-.8l.4-.6.4-.2a1.4,1.4,0,0,1,.8.5,1.2,1.2,0,0,1,.3.9,3.9,3.9,0,0,1-.5,1.4,3.8,3.8,0,0,1-.9,1.3l-.8.3h-.4a2.8,2.8,0,0,0-1.3-.3l-5.6-.2c-1,0-1.4-.3-1.4-.9a.4.4,0,0,1,.1-.3l.8-1.3,2.6-3.9a3.2,3.2,0,0,0,.7-1.3c0-.3-.2-.5-.8-.5a1.5,1.5,0,0,0-.8.2l-.6.6a1.4,1.4,0,0,1-.6.7l-.5.2a.6.6,0,0,1-.6-.4,1.1,1.1,0,0,1-.3-.8,5.2,5.2,0,0,1,.7-2.1c.5-.7.9-1,1.3-1h.3l.9.3Z" transform="translate(-8.7 -5.2)"/><path class="c" d="M228.5,37.2l-5-.2c-.3,0-.4.1-.4.3a1.6,1.6,0,0,0,.7,1.3,2.1,2.1,0,0,0,1.6.7h1.2l1-.5.6-.2a.9.9,0,0,1,.6.3,2.5,2.5,0,0,1,.2.7c0,.6-.4,1-1,1.5a6.2,6.2,0,0,1-4,1.1,5.1,5.1,0,0,1-3.7-1.4,4.8,4.8,0,0,1-1.2-1.6,5.8,5.8,0,0,1-.6-2.6,5.6,5.6,0,0,1,1.3-3.2,4.6,4.6,0,0,1,2.4-1.7,5.1,5.1,0,0,1,2.4-.4,4.9,4.9,0,0,1,3.4,1.2,3.9,3.9,0,0,1,1.1,1.5,3,3,0,0,1,.5,1.7,2.1,2.1,0,0,1-.3,1.2A.9.9,0,0,1,228.5,37.2ZM223.8,35h1.1c.4,0,.7-.2.7-.6a1.5,1.5,0,0,0-.3-1,1.2,1.2,0,0,0-1.8,0,1.2,1.2,0,0,0-.4.9.8.8,0,0,0,.2.5Z" transform="translate(-8.7 -5.2)"/><path class="c" d="M235.4,27.6a5.3,5.3,0,0,1,2.4.6,4.6,4.6,0,0,1,2,1.6,3.6,3.6,0,0,1,.6,2,2.4,2.4,0,0,1-1.1,2,6.1,6.1,0,0,1-1.6.9c-.3.1-.6.2-.7.4a.9.9,0,0,0-.4.6,2.5,2.5,0,0,1-.7.9c-.2.2-.5.2-1,.2a1.3,1.3,0,0,1-1-.4,1.7,1.7,0,0,1-.3-1,3.5,3.5,0,0,1,.3-1.3l.9-1.2a4.7,4.7,0,0,0,.8-2,1.9,1.9,0,0,0-.2-.8.7.7,0,0,0-.6-.3.5.5,0,0,0-.4.2,3.4,3.4,0,0,0-.3.8,2.4,2.4,0,0,1-.7,1.6,2.5,2.5,0,0,1-1.7.6,2.2,2.2,0,0,1-1.1-.5,1.4,1.4,0,0,1-.4-1.1,3.2,3.2,0,0,1,.8-2,4.9,4.9,0,0,1,1.8-1.4A7.5,7.5,0,0,1,235.4,27.6Zm-.6,10.3a2,2,0,0,1,1.6.7,2.5,2.5,0,0,1,.6,1.7,2.4,2.4,0,0,1-2.4,2.2,2,2,0,0,1-1.6-.7,2.2,2.2,0,0,1-.7-1.7,3.3,3.3,0,0,1,.7-1.6A2.3,2.3,0,0,1,234.8,37.9Z" transform="translate(-8.7 -5.2)"/><path class="d" d="M47.9,100A10.8,10.8,0,0,0,36.3,88.7c3.4-5.9-.9-12.9-7-14.8a.4.4,0,0,0-.5.2v.3c1.7,4.6-1.2,7.4-4.4,8.7a12.1,12.1,0,0,0-7,10.7c-5.3,3.2-6.6,8.9-4.2,12.6-8.6,4.6-3.8,18.8,5,17.2l31.3-5.5C56.1,116.9,59.1,103.7,47.9,100ZM21.5,98a4.3,4.3,0,0,1,5,3.5,4.3,4.3,0,0,1-3.5,5,4.4,4.4,0,0,1-5-3.5,4.3,4.3,0,0,1,3.5-5ZM44,112a2.4,2.4,0,0,1-1.9,2.7H42L23.8,118a2.4,2.4,0,0,1-2.7-1.9l-.7-3.6a2.3,2.3,0,0,1,1.9-2.7h0l18.3-3.3a2.4,2.4,0,0,1,2.7,2Zm-5.1-8.3a4.3,4.3,0,0,1-5-3.5,4.3,4.3,0,0,1,3.5-5,4.3,4.3,0,1,1,1.5,8.5Z" transform="translate(-8.7 -5.2)"/><circle class="d" cx="29.4" cy="94.3" r="2"/><circle class="d" cx="13.6" cy="97.1" r="2"/><rect class="d" x="23" y="111.1" width="2.5" height="5.18" rx="0.4" transform="translate(-28.1 0.8) rotate(-10)"/><rect class="d" x="28.3" y="110.1" width="2.5" height="5.18" rx="0.4" transform="translate(-27.8 1.7) rotate(-10)"/><rect class="d" x="38.9" y="108.3" width="2.5" height="5.18" rx="0.4" transform="matrix(0.98, -0.17, 0.17, 0.98, -27.33, 3.48)"/><rect class="d" x="33.7" y="109.2" width="2.5" height="5.18" rx="0.4" transform="translate(-27.6 2.6) rotate(-10)"/><rect class="d" x="27.8" y="71.4" width="0.3" height="3.26" transform="translate(-54.2 41) rotate(-49)"/><circle class="d" cx="17.8" cy="66.6" r="1"/></svg>