<svg xmlns="http://www.w3.org/2000/svg" xmlns:xlink="http://www.w3.org/1999/xlink" viewBox="0 0 121 36.3"><defs><style>.a{fill:url(#a);}.b{fill:none;stroke-miterlimit:10;stroke:url(#b);stroke-width:1px;stroke:#c9e9f5;}.c{fill:#231f20;}</style><linearGradient id="a" x1="2.01" y1="18.17" x2="118.97" y2="18.17" gradientUnits="userSpaceOnUse"><stop offset="0" stop-color="#f26a6b"/><stop offset="1" stop-color="#fac0bf"/></linearGradient><linearGradient id="b" x1="3.51" y1="64" x2="124.49" y2="64" xlink:href="#a"/></defs><rect class="a" x="2" y="1.9" width="117" height="32.52" rx="4"/><rect class="b" x="4" y="46.3" width="120" height="35.34" rx="5.2" transform="translate(124.5 82.2) rotate(180)"/><path class="c" d="M16.8,59.5a4.7,4.7,0,0,1,1.7.2h1.4a1,1,0,0,1,.7.5,2.5,2.5,0,0,1,.6,1.6,1.2,1.2,0,0,1-.3.9.9.9,0,0,1-.8.4,1.3,1.3,0,0,1-.8-.3l-.6-.7a2.1,2.1,0,0,0-1.7-.9,1.5,1.5,0,0,0-1.4.7,2.3,2.3,0,0,0-.5,1.7,4.4,4.4,0,0,0,.8,2.8,2.7,2.7,0,0,0,.8.7l.8.2.6-.2a.7.7,0,0,0,.2-.6c0-.2,0-.4-.2-.5a.1.1,0,0,1-.1-.1h-.4c-.2,0-.4,0-.5-.2a.5.5,0,0,1-.2-.4c0-.4.3-.7.8-.8a5.4,5.4,0,0,1,1.9-.3l1.9.2c.5.2.8.5.8.9a.5.5,0,0,1-.2.4l-.4.2h-.4c0,.1-.1.2-.1.4A3.6,3.6,0,0,1,20,68.1a3.7,3.7,0,0,1-1.4.8,4.7,4.7,0,0,1-1.7.3,6.8,6.8,0,0,1-2.8-.7,5.2,5.2,0,0,1-1.9-2,4.6,4.6,0,0,1-.6-2.3,3.9,3.9,0,0,1,.7-2.3,5.2,5.2,0,0,1,2-1.9A5.1,5.1,0,0,1,16.8,59.5Z" transform="translate(-3.5 -45.8)"/><path class="c" d="M29,65.9H25.8c-.2,0-.2.1-.2.2a.9.9,0,0,0,.4.8,1.7,1.7,0,0,0,1.1.4h.7l.7-.3.3-.2c.2,0,.3.1.4.3a.5.5,0,0,1,.2.4c0,.3-.3.6-.7,1a4.1,4.1,0,0,1-2.5.8,3.6,3.6,0,0,1-2.4-.9,2.7,2.7,0,0,1-.8-1,4.2,4.2,0,0,1-.4-1.6,4,4,0,0,1,.7-2.1,3.1,3.1,0,0,1,1.6-1.1,3.3,3.3,0,0,1,1.5-.3,3.4,3.4,0,0,1,2.2.7,3.1,3.1,0,0,1,.7.9,2.3,2.3,0,0,1,.3,1.1,1.5,1.5,0,0,1-.1.7C29.3,65.8,29.2,65.9,29,65.9Zm-3.1-1.3h.7c.3,0,.5-.1.5-.4a1.4,1.4,0,0,0-.2-.6l-.6-.2a.9.9,0,0,0-.6.3,1.4,1.4,0,0,0-.2.6.4.4,0,0,0,.1.3Z" transform="translate(-3.5 -45.8)"/><path class="c" d="M34.1,64v2.3c0,.2,0,.5.2.6a.5.5,0,0,0,.5.3l.7-.2h.2l.3.2a.6.6,0,0,1,.1.4.9.9,0,0,1-.4.8,3.6,3.6,0,0,1-2.4.9,2.1,2.1,0,0,1-1.7-.7,1.9,1.9,0,0,1-.7-1.6V63.6H29.7c0-.1-.1-.2-.1-.3v-.3c.1-.2.1-.3.2-.3l3.1-2H34c0,.1.1.2.1.3v1.2H36a1,1,0,0,1,.1.4v.4c0,.2-.1.3-.1.4H34.1Z" transform="translate(-3.5 -45.8)"/><path class="c" d="M41.1,65.8V62.2c0-.5,0-.8-.1-.9l-.5-.3q-.6-.2-.6-.6a.5.5,0,0,1,.3-.5l.7-.2h4.7a4.5,4.5,0,0,1,2,.4,2.7,2.7,0,0,1,1.5,2.5A2.6,2.6,0,0,1,48,64.8a3.6,3.6,0,0,1-2.4.8H44.4c-.2,0-.2.1-.2.2h0v1.1a4.3,4.3,0,0,0,.1.5l.5.3c.3.2.4.3.4.5s-.2.5-.6.7l-1.9.2c-1.7,0-2.5-.3-2.5-.9a.4.4,0,0,1,.1-.3l.5-.3q.3-.1.3-.3Zm3.1-4.5v2.3a.4.4,0,0,0,.1.3h.5a1.1,1.1,0,0,0,.8-.2,1.6,1.6,0,0,0,.4-1.2c0-.6-.1-1.1-.5-1.3a1.1,1.1,0,0,0-.8-.3C44.4,61,44.2,61.1,44.2,61.3Z" transform="translate(-3.5 -45.8)"/><path class="c" d="M53.4,62.2a4,4,0,0,1,2.2.6A4.3,4.3,0,0,1,56.7,64a3.3,3.3,0,0,1,.4,1.7,3,3,0,0,1-1.4,2.5,4.8,4.8,0,0,1-2.9,1,3.6,3.6,0,0,1-2.7-1,3.1,3.1,0,0,1-1-2.3,3.4,3.4,0,0,1,1.2-2.7A4.8,4.8,0,0,1,53.4,62.2Zm-.5,1.5a.5.5,0,0,0-.5.3.8.8,0,0,0-.2.6,5.4,5.4,0,0,0,.1,1.1l.4,1.2c.2.4.4.6.7.6s.6-.3.6-.8a6.2,6.2,0,0,0-.1-1.3,8.3,8.3,0,0,0-.4-1.2A1.3,1.3,0,0,0,52.9,63.7Z" transform="translate(-3.5 -45.8)"/><path class="c" d="M61.8,62.2a3.8,3.8,0,0,1,2.2.6A3.2,3.2,0,0,1,65.1,64a3.3,3.3,0,0,1,.4,1.7,3.1,3.1,0,0,1-1.3,2.5,5.4,5.4,0,0,1-3,1,3.3,3.3,0,0,1-2.6-1,2.8,2.8,0,0,1-1-2.3,3.4,3.4,0,0,1,1.2-2.7A4.4,4.4,0,0,1,61.8,62.2Zm-.5,1.5a.5.5,0,0,0-.5.3.8.8,0,0,0-.2.6,8.9,8.9,0,0,0,.2,1.1l.3,1.2c.2.4.4.6.7.6s.6-.3.6-.8a6.2,6.2,0,0,0-.1-1.3,3.4,3.4,0,0,0-.4-1.2C61.8,63.9,61.6,63.8,61.3,63.7Z" transform="translate(-3.5 -45.8)"/><path class="c" d="M69.4,62.2h.5c.1,0,.1.1.1.3s.1.3.2.3l.4-.3.8-.3h.8a2,2,0,0,1,1.5.6,3.1,3.1,0,0,1,.9,1.1,4.1,4.1,0,0,1,.3,1.6,3.6,3.6,0,0,1-1.2,2.8,2.8,2.8,0,0,1-2,.9l-1.2-.3h-.2c-.2,0-.2.2-.2.4s.1.7.3.8l.4.3a.4.4,0,0,1,.1.3.6.6,0,0,1-.5.6,2.4,2.4,0,0,1-1.3.2,5.5,5.5,0,0,1-2.6-.5,1,1,0,0,1-.5-.8.4.4,0,0,1,.1-.3l.3-.2a.7.7,0,0,0,.4-.6,13,13,0,0,0,.1-2.5,7.2,7.2,0,0,0-.1-1.9h-.4l-.4-.2c0-.2-.1-.3-.1-.4a.8.8,0,0,1,.2-.5.9.9,0,0,1,.6-.4A7.2,7.2,0,0,1,69.4,62.2Zm.7,2.6v1.9c-.1,0-.1.1-.1.2s.1.3.2.3l.5.2c.7,0,1-.5,1-1.6a2.3,2.3,0,0,0-.4-1.4.9.9,0,0,0-.6-.3C70.3,64.1,70.1,64.4,70.1,64.8Z" transform="translate(-3.5 -45.8)"/><path class="c" d="M83,59.5l1.8.3h.9c.3,0,.6.2,1,.7a3,3,0,0,1,.5,1.4.7.7,0,0,1-.3.6.5.5,0,0,1-.5.3h-.5l-.7-.7a2.5,2.5,0,0,0-1.6-.7c-.3,0-.5,0-.6.2s-.3.2-.3.4.4.7,1.1.9l1.8.6a2.6,2.6,0,0,1,1.7,2.5,2.9,2.9,0,0,1-1.2,2.4,4.5,4.5,0,0,1-3.1,1L81.1,69l-1.4-.5a2.9,2.9,0,0,1-.6-1,7.8,7.8,0,0,1-.2-1.4.7.7,0,0,1,.1-.5.4.4,0,0,1,.4-.2c.2,0,.4,0,.5.2a3.7,3.7,0,0,1,.7,1,1.7,1.7,0,0,0,.8.6l1.1.3.9-.2a.5.5,0,0,0,.3-.5c0-.2-.1-.3-.3-.5l-.8-.3-1.5-.6-.9-.6a3.1,3.1,0,0,1-1.1-2.2,2.7,2.7,0,0,1,.3-1.2,2.5,2.5,0,0,1,.8-1A4.5,4.5,0,0,1,83,59.5Z" transform="translate(-3.5 -45.8)"/><path class="c" d="M91.8,62.2a3.7,3.7,0,0,1,2.1.6,1.6,1.6,0,0,1,.9,1.4,1.3,1.3,0,0,1-.4,1l-.9.3a1,1,0,0,1-.9-.4l-.2-.6c-.2-.4-.4-.6-.8-.6l-.6.3a1.1,1.1,0,0,0-.2.8,2.5,2.5,0,0,0,.5,1.5,2.1,2.1,0,0,0,1.3.5h.5l.6-.2h.2a.6.6,0,0,1,.5.2.7.7,0,0,1,.1.5.7.7,0,0,1-.2.6,1.3,1.3,0,0,1-.7.6,3.7,3.7,0,0,1-2.1.6,3.6,3.6,0,0,1-2.4-.9,3.2,3.2,0,0,1-1.3-2.6A3.4,3.4,0,0,1,89,63.1,4.5,4.5,0,0,1,91.8,62.2Z" transform="translate(-3.5 -45.8)"/><path class="c" d="M99.5,62.2a3.5,3.5,0,0,1,3.3,1.8,4.7,4.7,0,0,1,.4,1.7,3.3,3.3,0,0,1-1.4,2.5,4.9,4.9,0,0,1-3,1,3.5,3.5,0,0,1-2.6-1,2.8,2.8,0,0,1-1-2.3,3.4,3.4,0,0,1,1.2-2.7A4.8,4.8,0,0,1,99.5,62.2Zm-.6,1.5c-.2,0-.3.1-.5.3s-.1.3-.1.6a5.4,5.4,0,0,0,.1,1.1,4.2,4.2,0,0,0,.4,1.2.7.7,0,0,0,.7.6c.4,0,.6-.3.6-.8a6.9,6.9,0,0,0-.2-1.3,10.4,10.4,0,0,0-.3-1.2A1.2,1.2,0,0,0,98.9,63.7Z" transform="translate(-3.5 -45.8)"/><path class="c" d="M106.9,62.2h.4c.1.1.1.3.1.7s.1.3.3.3l.2-.2a1.7,1.7,0,0,1,1.4-.9,1.8,1.8,0,0,1,1.1.4l.3.5a1.3,1.3,0,0,1,.1.6,1.7,1.7,0,0,1-.1.7l-.4.5a1.6,1.6,0,0,1-1.1.5l-.6-.2c-.2,0-.4-.2-.6-.5h-.3a.2.2,0,0,0-.2.2,2.2,2.2,0,0,0-.1.9,4.5,4.5,0,0,0,.1,1.4.4.4,0,0,0,.1.3l.4.2q.6.2.6.6a.8.8,0,0,1-.2.5l-.5.3h-2l-1.8-.2a.7.7,0,0,1-.6-.7c0-.2.2-.4.5-.6l.2-.2a.4.4,0,0,0,.1-.3,12.9,12.9,0,0,0,.1-2.3v-.5l-.3-.2c-.3-.1-.5-.3-.5-.5s.1-.4.4-.6a2.8,2.8,0,0,1,1.1-.5Z" transform="translate(-3.5 -45.8)"/><path class="c" d="M117.3,65.9h-3.2l-.2.2a1,1,0,0,0,.5.8,1.3,1.3,0,0,0,1,.4h.7l.7-.3.4-.2q.1,0,.3.3a.5.5,0,0,1,.2.4c0,.3-.2.6-.6,1a4.4,4.4,0,0,1-2.5.8,3.2,3.2,0,0,1-2.4-.9,2,2,0,0,1-.8-1,2.9,2.9,0,0,1-.4-1.6,3.3,3.3,0,0,1,.7-2.1,3.3,3.3,0,0,1,1.5-1.1,4,4,0,0,1,1.5-.3,3.2,3.2,0,0,1,2.2.7,3.4,3.4,0,0,1,.8.9,2.3,2.3,0,0,1,.3,1.1,1.4,1.4,0,0,1-.2.7A.5.5,0,0,1,117.3,65.9Zm-3-1.3h.7c.3,0,.4-.1.4-.4a1.4,1.4,0,0,0-.2-.6l-.5-.2a.6.6,0,0,0-.6.3.9.9,0,0,0-.3.6c0,.1.1.2.1.3Z" transform="translate(-3.5 -45.8)"/></svg>