<svg xmlns="http://www.w3.org/2000/svg" xmlns:xlink="http://www.w3.org/1999/xlink" viewBox="0 0 165.26 190.37"><defs><linearGradient id="a" x1="87.45" y1="122.5" x2="152.75" y2="174.25" gradientUnits="userSpaceOnUse"><stop offset="0.09" stop-color="#e49e45"/><stop offset="0.16" stop-color="#d28235"/><stop offset="0.24" stop-color="#c46d28"/><stop offset="0.33" stop-color="#ba5e1f"/><stop offset="0.43" stop-color="#b4551a"/><stop offset="0.57" stop-color="#b25218"/></linearGradient><linearGradient id="b" x1="62.9" y1="157.48" x2="65.77" y2="154.32" gradientUnits="userSpaceOnUse"><stop offset="0" stop-color="#e49e45"/><stop offset="0.08" stop-color="#dc903b"/><stop offset="0.22" stop-color="#d17d2d"/><stop offset="0.39" stop-color="#c96f23"/><stop offset="0.6" stop-color="#c4671e"/><stop offset="1" stop-color="#c3651c"/></linearGradient></defs><path d="M174.1,213.42c27.54,0,46.84-38.53,13.52-61.26,4.07-26-.24-41.68-11.29-49C178,84,166.53,71.81,142.79,69.65c7.87-11.11,1.38-36.3-18-40.63,5.14,13-2.22,23.71-18.45,28.18-18.27,5.29-24.93,21-22.8,34.14C58,104,59.54,123.5,60.62,152.94c-30.3,22.81-12.13,60.48,17,60.48Z" transform="translate(-43.47 -26.45)" fill="#c3651c"/><path d="M135,37c12.72,17.14.12,37.4-14,39.44,12.64,1.9,19.47-.72,22.13-6.32C149,56.39,144.52,45.67,135,37Z" transform="translate(-43.47 -26.45)" fill="#a84a13"/><path d="M142,68.74a21.63,21.63,0,0,1-10.46,8.14c4.87.45,9.21-.67,12.74-4.2Z" transform="translate(-43.47 -26.45)" fill="#582606"/><path d="M153.87,73.78C163.53,81,167.42,90.3,164.23,102c18.23,6.72,19.41,27.49,16.51,51.62,26.38,17.89,4,49.15-24.71,49.15H77.92c-31.08,0-33.74-32.71-9.4-46.91l-5.47-3c-29.44,23.25-14.57,58.46,15.47,60.21l97.19.22c27.54-2.68,42.63-35.51,12.18-59.7,4.83-24.92-.23-40.18-11.55-49.3C176.81,83.55,166.67,76.91,153.87,73.78Z" transform="translate(-43.47 -26.45)" fill="url(#a)"/><path d="M184.16,129.74h.7a4.36,4.36,0,0,1,4.36,4.36v6.43a4.36,4.36,0,0,1-4.36,4.36h-.7a0,0,0,0,1,0,0V129.74A0,0,0,0,1,184.16,129.74Z" transform="translate(329.91 248.18) rotate(180)" fill="#582606"/><path d="M66.31,132.27c-.73-16.46,7.42-28.1,24.17-35.08-7.64-11.3,4-27.18,19.19-32.58,23.65-7.88,23.13-27.47,18.63-32.92,1.47,12.94-5.66,22.09-19.49,26.63-16.91,4.28-25,15.52-23.74,34.25-14.9,7.75-23.84,19.83-22.95,39Z" transform="translate(-43.47 -26.45)" fill="#edad58"/><path d="M82.91,95.91a40,40,0,0,1,5.2-2.13.22.22,0,0,0,.12-.35,10.35,10.35,0,0,1-1.57-4.55Z" transform="translate(-43.47 -26.45)" fill="#582606"/><path d="M19.14,103.37h.7a4.36,4.36,0,0,1,4.36,4.36v6.43a4.36,4.36,0,0,1-4.36,4.36h-.7a0,0,0,0,1,0,0V103.37A0,0,0,0,1,19.14,103.37Z" fill="#582606"/><ellipse cx="130.63" cy="133.25" rx="6.71" ry="6.29" fill="#f08010"/><ellipse cx="35.21" cy="132.94" rx="6.76" ry="6.23" fill="#f08010"/><path d="M118.9,148.89c1.6-3.43,11.72-4.39,14.33-.09-.17-3.92-2-6.36-7-6.5C120.68,143,119,145.55,118.9,148.89Z" transform="translate(-43.47 -26.45)" fill="#e39643"/><path d="M159.25,152.94H146.57c-3.67,0-9.47-1.53-11.56-6-2.74-5.26-5.74-5.84-8.76-5.84s-6,.63-9,5.85c-2.7,4.54-8.54,5.95-11.81,5.95H93.24a15.38,15.38,0,0,1-15.38-15.37v-7.5A15.38,15.38,0,0,1,93.24,114.7h66a15.38,15.38,0,0,1,15.38,15.37v7.5A15.38,15.38,0,0,1,159.25,152.94Z" transform="translate(-43.47 -26.45)" fill="#743c1b"/><path d="M159.25,152.94H146.57c-3.67,0-9.47-1.53-11.56-6-2.74-5.26-5.74-5.84-8.76-5.84s-6,.63-9,5.85c-2.7,4.54-8.54,5.95-11.81,5.95H93.24a15.38,15.38,0,0,1-15.38-15.37v-7.5A15.38,15.38,0,0,1,93.24,114.7h66a15.38,15.38,0,0,1,15.38,15.37v7.5A15.38,15.38,0,0,1,159.25,152.94Z" transform="translate(-43.47 -26.45)" fill="none" stroke="#582606" stroke-miterlimit="10" stroke-width="5"/><path d="M154.41,99.54c5.77,0,10.58,4.61,8.81,7-1.23,1.49-2.39,1.34-4.41-.18-1.24-.92-2.61-.91-4.2-.91a14.05,14.05,0,0,0-6.19,1.26c-1,.4-1.91-.74-1.95-2.18C146.47,102.43,149.91,99.54,154.41,99.54Z" transform="translate(-43.47 -26.45)" fill="#582606"/><path d="M98.94,99.54c-5.78,0-10.82,4.79-9,7.21,1.23,1.49,2.58,1.17,4.67-.29a6.92,6.92,0,0,1,4.17-1c2.62,0,4.06.81,6.19,1.26.94.14,2-.59,2-2.18C106.87,102.43,103.43,99.54,98.94,99.54Z" transform="translate(-43.47 -26.45)" fill="#582606"/><ellipse cx="109.36" cy="107.11" rx="10.25" ry="12.26" fill="#421c05"/><ellipse cx="56.13" cy="107.11" rx="10.23" ry="12.26" fill="#421c05"/><ellipse cx="102.98" cy="129.52" rx="3.11" ry="3.61" transform="translate(-88.61 29.32) rotate(-25.04)" fill="#fcf3d8"/><ellipse cx="149.59" cy="129.67" rx="3.56" ry="3.07" transform="translate(-78.27 175.25) rotate(-62.26)" fill="#fcf3d8"/><rect x="65.81" y="137.56" width="8.35" height="19.71" fill="#fcf3d8"/><rect x="78.95" y="137.56" width="8.19" height="19.99" fill="#fcf3d8"/><rect x="91.93" y="137.56" width="8.26" height="19.99" fill="#fcf3d8"/><rect x="65.27" y="137.56" width="35.74" height="9.6" fill="#fcebc9"/><rect x="74.16" y="137.82" width="4.79" height="19.27" fill="#582606"/><path d="M146.09,163.71l6.87.3c5.18,2.18,4.22,6.45,1.57,11.29-1.45,5.22-4.75,7.15-8.8,7.71Z" transform="translate(-43.47 -26.45)" fill="#94491f"/><rect x="87.14" y="137.82" width="4.79" height="19.27" fill="#582606"/><rect x="100.2" y="137.82" width="4.79" height="19.27" fill="#582606"/><rect x="126.56" y="153.67" width="0.37" height="39.87" transform="translate(256.88 20.4) rotate(90)" fill="#582606"/><circle cx="122.03" cy="22.81" r="5.7" fill="#ef8224"/><path d="M164.77,45.18c2,1.17,3.15,3.23,2,4.49-1.26,1.46-3.64,1.36-5.46-1C161.57,46.51,162.45,45,164.77,45.18Z" transform="translate(-43.47 -26.45)" fill="#fcb744"/><circle cx="122.03" cy="22.81" r="5.7" fill="none" stroke="#582606" stroke-miterlimit="10" stroke-width="4"/><path d="M105.24,163.71l-5.65.3c-4.25,2.18-3.46,6.45-1.29,11.29,1.2,5.22,3.9,7.15,7.23,7.71Z" transform="translate(-43.47 -26.45)" fill="#94491f"/><rect x="61.02" y="137.82" width="4.79" height="19.27" fill="#582606"/><path d="M59.78,135.54h46.7a7.51,7.51,0,0,1,7.51,7.51v.45a15.26,15.26,0,0,1-15.26,15.26H67.53A15.26,15.26,0,0,1,52.27,143.5v-.45A7.51,7.51,0,0,1,59.78,135.54Z" fill="none" stroke="#582606" stroke-miterlimit="10" stroke-width="5"/><line x1="122.04" y1="50.21" x2="122.04" y2="28.38" fill="none" stroke="#582606" stroke-miterlimit="10" stroke-width="4"/><path d="M188.34,118.39h1.25A14.41,14.41,0,0,1,203.77,133v4.81a14.41,14.41,0,0,1-14.18,14.62l-.82.27" transform="translate(-43.47 -26.45)" fill="#d05909"/><path d="M201.4,132.14c-.63,5.17-4.19,7.74-9.33,7.74l-2-16.57,6.48-1.34C200.18,125,202.12,128.34,201.4,132.14Z" transform="translate(-43.47 -26.45)" fill="#e97c12"/><path d="M190.48,122.42a26.67,26.67,0,0,0,11,8.55c-.08-3.11-.55-6.15-3.58-8.72-2.95-2-5.36-2.51-7.46-2.1Z" transform="translate(-43.47 -26.45)" fill="#fdae3d"/><path d="M188.34,118.39h1.25A14.41,14.41,0,0,1,203.77,133v4.81a14.41,14.41,0,0,1-14.18,14.62h-1.25" transform="translate(-43.47 -26.45)" fill="none" stroke="#582606" stroke-miterlimit="10" stroke-width="5"/><path d="M61.74,117.94H60.5c-7.83,0-14.18,6.64-14.18,14.82v4.87c0,8.19,6.35,14.82,14.18,14.82h1.24" transform="translate(-43.47 -26.45)" fill="#d05909"/><path d="M48.68,131.87c.64,5.24,5.09,8.29,10.23,8.29l1.29-18.25-6.64-.34C49.91,124.64,48,128,48.68,131.87Z" transform="translate(-43.47 -26.45)" fill="#e97c12"/><path d="M59.61,122a26.75,26.75,0,0,1-11,8.67c.07-3.15.55-6.23,3.58-8.84A10.3,10.3,0,0,1,60,119.77Z" transform="translate(-43.47 -26.45)" fill="#fdae3d"/><path d="M61.74,117.94H60.5c-7.83,0-14.18,6.64-14.18,14.82v4.87c0,8.19,6.35,14.82,14.18,14.82l.82.27" transform="translate(-43.47 -26.45)" fill="none" stroke="#582606" stroke-miterlimit="10" stroke-width="5"/><path d="M63.62,153l5.06,2.84a44.09,44.09,0,0,0-7.89,6l-3.36-3Z" transform="translate(-43.47 -26.45)" fill="url(#b)"/><path d="M175.07,214.32c27.54,0,46.85-38.54,13.53-61.27,4.07-26-.24-41.68-11.29-49,1.68-19.15-9.8-31.38-33.54-33.54,7.86-11.11,1.38-36.3-18-40.62,5.14,13-2.22,23.71-18.45,28.17C89,63.39,82.39,79.15,84.52,92.23c-25.57,12.71-24,32.16-22.92,61.6-30.3,22.81-12.13,60.49,17,60.49Z" transform="translate(-43.47 -26.45)" fill="none" stroke="#582606" stroke-miterlimit="10" stroke-width="5"/></svg>