<svg xmlns="http://www.w3.org/2000/svg" xmlns:xlink="http://www.w3.org/1999/xlink" viewBox="0 0 74.1 36.3"><defs><style>.a{fill:url(#a);}.b{fill:none;stroke-miterlimit:10;stroke:url(#b);stroke-width:1px;stroke:#c9e9f5;}.c{fill:#231f20;}</style><linearGradient id="a" x1="2.28" y1="18.17" x2="71.78" y2="18.17" gradientUnits="userSpaceOnUse"><stop offset="0" stop-color="#808285"/><stop offset="0.46" stop-color="#b7b8ba"/><stop offset="0.81" stop-color="#d9dadb"/><stop offset="1" stop-color="#e6e7e8"/></linearGradient><linearGradient id="b" x1="26.97" y1="64" x2="101.03" y2="64" xlink:href="#a"/></defs><rect class="a" x="2.3" y="1.9" width="69.5" height="32.62" rx="4"/><rect class="b" x="27.5" y="46.3" width="73.1" height="35.34" rx="5.2" transform="translate(101 82.2) rotate(180)"/><path class="c" d="M41.1,64.1c-.2,0-.4.1-.4.2a2.8,2.8,0,0,0-.1,1.1,9.8,9.8,0,0,0,.1,1.9c.1.2.1.3.2.3s.2.2.3.3a.9.9,0,0,1,.6.8c0,.5-.2.8-.8,1l-2.7.2c-2.5,0-3.7-.4-3.7-1.3s.1-.3.1-.4l.5-.4a1.3,1.3,0,0,0,.6-.7,3.5,3.5,0,0,0,.2-1.3,49.1,49.1,0,0,0,.1-5,6.2,6.2,0,0,0-.2-1.8,1,1,0,0,0-.5-.7l-.6-.4a.8.8,0,0,1-.2-.5.9.9,0,0,1,.3-.6l.8-.4h7.2a6,6,0,0,1,3.4,1,3.1,3.1,0,0,1,1.2,2.6,2.9,2.9,0,0,1-.4,1.6,2.5,2.5,0,0,1-1.2,1.1c-.2.1-.3.2-.3.4s.2.3.5.4a3.1,3.1,0,0,1,1.5,1.2,5.2,5.2,0,0,1,.7,2.3,1.3,1.3,0,0,0,.2.8l.8.4.3.2a.8.8,0,0,1,.2.4.9.9,0,0,1-.3.6,1,1,0,0,1-.6.5,4.6,4.6,0,0,1-2.2.4,3.4,3.4,0,0,1-2.8-1L43.3,68a12.9,12.9,0,0,1-.6-2.2,2.3,2.3,0,0,0-.6-1.3A1.3,1.3,0,0,0,41.1,64.1Zm-.5-5v2.3h0a.7.7,0,0,0,.1.5c0,.1.2.1.4.1a1.4,1.4,0,0,0,1.2-.5,1.8,1.8,0,0,0,.4-1.4c0-1.2-.4-1.9-1.3-1.9a.6.6,0,0,0-.5.2C40.6,58.6,40.6,58.8,40.6,59.1Z" transform="translate(-27 -45.8)"/><path class="c" d="M59,65.4H54.4c-.2,0-.3,0-.3.2a1.5,1.5,0,0,0,.7,1.2,2,2,0,0,0,1.5.6l1-.2,1-.5.5-.2.5.3a1.4,1.4,0,0,1,.2.7,1.7,1.7,0,0,1-.9,1.3A5.5,5.5,0,0,1,55.1,70a5.1,5.1,0,0,1-3.5-1.2,7.6,7.6,0,0,1-1.1-1.4,4.9,4.9,0,0,1-.6-2.3,5.4,5.4,0,0,1,1-3,6.2,6.2,0,0,1,2.2-1.7,5.4,5.4,0,0,1,2.2-.4,4.7,4.7,0,0,1,3.1,1.1,3.2,3.2,0,0,1,1.1,1.2,3.4,3.4,0,0,1,.4,1.6,1.5,1.5,0,0,1-.2,1C59.5,65.2,59.3,65.4,59,65.4Zm-4.3-1.9h.9c.5,0,.7-.2.7-.6a1,1,0,0,0-1.1-1.1,1,1,0,0,0-.9.4,1.3,1.3,0,0,0-.3.8.5.5,0,0,0,.2.4Z" transform="translate(-27 -45.8)"/><path class="c" d="M66.2,62.6v3.3a1.4,1.4,0,0,0,.3.9.9.9,0,0,0,.8.4,1.9,1.9,0,0,0,1-.4h.3a.5.5,0,0,1,.4.3,1.4,1.4,0,0,1,.2.6,1.5,1.5,0,0,1-.7,1.2A4.8,4.8,0,0,1,65.2,70a3.3,3.3,0,0,1-2.5-.9,2.9,2.9,0,0,1-1-2.3V62H60a1,1,0,0,1-.1-.4V61a.5.5,0,0,1,.3-.5l4.4-2.8h1.2a.5.5,0,0,1,.4.2v1.7c0,.2.1.3.1.4H69c.1.1.1.3.1.6v.6c0,.3,0,.5-.1.6l-.5.2H66.3C66.3,62.3,66.2,62.4,66.2,62.6Z" transform="translate(-27 -45.8)"/><path class="c" d="M74.3,60.1h.6c.1.1.1.4.2.9s.1.5.3.5a.5.5,0,0,0,.4-.3,2.3,2.3,0,0,1,2-1.2,2.5,2.5,0,0,1,1.5.5l.4.8a3.1,3.1,0,0,1,.2.8,4.4,4.4,0,0,1-.2,1l-.6.8a2,2,0,0,1-1.5.6l-.8-.2a2.8,2.8,0,0,1-.9-.7c-.2-.2-.3-.2-.4-.2s-.3.1-.4.3-.1.6-.1,1.3a8.1,8.1,0,0,0,.2,2c0,.2.1.3.1.4l.6.2c.6.2.8.5.8.9a.8.8,0,0,1-.2.7,1.2,1.2,0,0,1-.8.4,9.8,9.8,0,0,1-2.7.2,9.1,9.1,0,0,1-2.7-.3c-.5-.2-.8-.5-.8-.9a1,1,0,0,1,.6-.9l.4-.4.2-.4a26.5,26.5,0,0,0,.1-3.3c0-.3,0-.5-.1-.6l-.4-.3c-.4-.2-.7-.5-.7-.8a1,1,0,0,1,.5-.8,6.2,6.2,0,0,1,1.6-.7A9.2,9.2,0,0,1,74.3,60.1Z" transform="translate(-27 -45.8)"/><path class="c" d="M89.9,64.8l-1.3,3.5a9,9,0,0,1-1,2.2,5,5,0,0,1-1,1.4,4.5,4.5,0,0,1-3.1,1.2,3.2,3.2,0,0,1-2.3-.7,1.8,1.8,0,0,1-.7-1.5,2,2,0,0,1,.4-1.3,2.1,2.1,0,0,1,1.2-.5,1.7,1.7,0,0,1,1.2.5.5.5,0,0,1,.2.4c.1.1.1.3.2.7a.5.5,0,0,0,.5.4.5.5,0,0,0,.5-.3c.2-.1.2-.3.2-.6a3.2,3.2,0,0,0-.5-1.5l-2.3-5a4.7,4.7,0,0,0-.6-1c-.1-.2-.4-.3-.8-.5l-.3-.3c-.1-.2-.2-.3-.2-.5s.6-.9,1.8-1.1a10.2,10.2,0,0,1,2.6-.2,3.7,3.7,0,0,1,1.6.2c.5.2.8.5.8.9a1.4,1.4,0,0,1-.2.6.7.7,0,0,0-.2.6,1.1,1.1,0,0,0,.1.5,5.4,5.4,0,0,0,.4.8c.3.5.5.7.7.7s.4-.2.6-.6a2.7,2.7,0,0,0,.3-1.2,1.4,1.4,0,0,0-.2-.7c-.3-.3-.4-.5-.4-.7s.2-.6.7-.8a4,4,0,0,1,1.7-.3c1.4,0,2.1.3,2.1,1a.8.8,0,0,1-.2.5c-.1.2-.4.3-.8.5a1.8,1.8,0,0,0-.7.5A16.4,16.4,0,0,0,89.9,64.8Z" transform="translate(-27 -45.8)"/></svg>