<svg xmlns="http://www.w3.org/2000/svg" viewBox="0 0 109.1 114.3"><defs><style>.a{fill:none;stroke:#f5faff;stroke-linecap:round;stroke-linejoin:round;stroke-width:3px;}.b{fill:#f5faff;}</style></defs><path class="a" d="M83.5,45.7V61.1a3.1,3.1,0,0,1-3.1,3.1H15.8a3.5,3.5,0,0,0-3.5,3.5v2.5A3.8,3.8,0,0,0,16,73.9h0a3.8,3.8,0,0,1,3.6,2.8C23,89.5,30.4,98.3,43,101.8a3.3,3.3,0,0,1,2.4,4c0,.1,0,.2-.1.2a35.3,35.3,0,0,1-8.2,13.3,3,3,0,0,0,.3,4.1,3.1,3.1,0,0,0,1.8.7H94.1a3.2,3.2,0,0,0,3.2-3.2h0c-.8-18.3-.2-35.1,6.5-45.4a3.8,3.8,0,0,1,2.9-1.5h2.5a3.4,3.4,0,0,0,3.4-3.4h0V23.9a2.9,2.9,0,0,1,2.9-2.9h0a2.9,2.9,0,0,0,2.9-2.9h0V15.7a2.9,2.9,0,0,0-2.9-2.9H80.6a2.9,2.9,0,0,0-2.9,2.9h0v2.1a2.9,2.9,0,0,0,2.8,2.9h.1a2.9,2.9,0,0,1,2.9,2.9h0Z" transform="translate(-10.8 -11.3)"/><path class="b" d="M43.2,100.3c4.4,1.2,8.6,2.2,13.1,1.9a54.2,54.2,0,0,0,13.3-2.7c-4.2,1.6-8.6,3.5-13.1,4s-9.5.9-13.9-.3" transform="translate(-10.8 -11.3)"/><path class="b" d="M81.7,31a3.1,3.1,0,0,1,.9,1.9V26.5a2.6,2.6,0,0,1-1,1.4,1.2,1.2,0,0,0-.4.8v1.4A1,1,0,0,0,81.7,31Z" transform="translate(-10.8 -11.3)"/></svg>